<?xml version="1.0" encoding="UTF-8" standalone="no"?>
<svg
   xmlns:dc="http://purl.org/dc/elements/1.1/"
   xmlns:cc="http://creativecommons.org/ns#"
   xmlns:rdf="http://www.w3.org/1999/02/22-rdf-syntax-ns#"
   xmlns:svg="http://www.w3.org/2000/svg"
   xmlns="http://www.w3.org/2000/svg"
   id="svg7657"
   height="223.77344"
   width="239.98819"
   version="1.0">
  <metadata
     id="metadata5020">
    <rdf:RDF>
      <cc:Work
         rdf:about="">
        <dc:format>image/svg+xml</dc:format>
        <dc:type
           rdf:resource="http://purl.org/dc/dcmitype/StillImage" />
        <dc:title></dc:title>
      </cc:Work>
    </rdf:RDF>
  </metadata>
  <defs
     id="defs8" />
  <path
     id="path5564-0"
     d="M 59.994141,223.77344 A 120.00001,120.00001 0 0 1 20.457032,216.92578 120.00001,120.00001 0 0 1 0,207.57422 120.00001,120.00001 0 0 1 2.1816406,185.21485 120.00001,120.00001 0 0 1 60,103.94336 a 120.00001,120.00001 0 0 1 -0.0059,-0.16992 120.00001,120.00001 0 0 1 41.710939,-90.75391 c 6e-4,-1.4e-4 0.001,1.5e-4 0.002,0 A 120.00001,120.00001 0 0 1 120.0332,0 120.00001,120.00001 0 0 1 138.34961,12.97071 l 0.004,0 a 100,100 0 0 0 -0.002,0.002 120.00001,120.00001 0 0 1 41.64258,90.80078 120.00001,120.00001 0 0 1 -0.006,0.12305 120.00001,120.00001 0 0 1 57.80859,81.39257 120.00001,120.00001 0 0 1 0,0.002 120.00001,120.00001 0 0 1 2.19141,22.23633 120.00001,120.00001 0 0 1 -20.50781,9.41797 120.00001,120.00001 0 0 1 -39.48624,6.82803 120.00001,120.00001 0 0 1 -60.03906,-16.22656 120.00001,120.00001 0 0 1 -59.960939,16.22656 z M 138.35352,12.97071 c 1.738,-0.88442 3.56174,-1.61752 5.45703,-2.21289 a 100,100 0 0 0 -5.45703,2.21289 z M 59.994141,203.77344 a 100,100 0 0 0 41.642579,-9.19922 120.00001,120.00001 0 0 1 -39.445313,-68.39258 100,100 0 0 0 -41.345704,69.49219 100,100 0 0 0 39.148438,8.09961 z m 119.999999,0 a 100,100 0 0 0 39.20312,-8.02148 100,100 0 0 0 -41.39062,-69.4961 120.00001,120.00001 0 0 1 -39.52344,68.27149 100,100 0 0 0 41.71094,9.24609 z m -60.02148,-20.13867 a 100,100 0 0 0 39.16992,-67.83789 100,100 0 0 0 -39.14844,-8.09961 100,100 0 0 0 -39.203124,8.02148 100,100 0 0 0 39.181644,67.91602 z m 39.55859,-89.08985 a 100,100 0 0 0 -39.51563,-70.63281 100,100 0 0 0 -39.507807,70.61328 120.00001,120.00001 0 0 1 39.486327,-6.82812 120.00001,120.00001 0 0 1 39.53711,6.84765 z"
     style="fill:#000000;fill-opacity:1;stroke:none;stroke-width:20;stroke-linecap:butt;stroke-miterlimit:4;stroke-dasharray:none;stroke-opacity:1" />
</svg>
