<?xml version="1.0" encoding="UTF-8" standalone="no"?>
<!-- Created with Inkscape (http://www.inkscape.org/) -->

<svg
   xmlns:dc="http://purl.org/dc/elements/1.1/"
   xmlns:cc="http://creativecommons.org/ns#"
   xmlns:rdf="http://www.w3.org/1999/02/22-rdf-syntax-ns#"
   xmlns:svg="http://www.w3.org/2000/svg"
   xmlns="http://www.w3.org/2000/svg"
   xmlns:sodipodi="http://sodipodi.sourceforge.net/DTD/sodipodi-0.dtd"
   xmlns:inkscape="http://www.inkscape.org/namespaces/inkscape"
   version="1.0"
   width="240"
   height="400"
   id="svg7657"
   inkscape:version="0.91 r13725"
   sodipodi:docname="tryzub.svg">
  <metadata
     id="metadata5020">
    <rdf:RDF>
      <cc:Work
         rdf:about="">
        <dc:format>image/svg+xml</dc:format>
        <dc:type
           rdf:resource="http://purl.org/dc/dcmitype/StillImage" />
        <dc:title></dc:title>
      </cc:Work>
    </rdf:RDF>
  </metadata>
  <sodipodi:namedview
     pagecolor="#ffffff"
     bordercolor="#666666"
     borderopacity="1"
     objecttolerance="10"
     gridtolerance="10"
     guidetolerance="10"
     inkscape:pageopacity="0"
     inkscape:pageshadow="2"
     inkscape:window-width="1301"
     inkscape:window-height="744"
     id="namedview5018"
     showgrid="false"
     inkscape:zoom="1.026087"
     inkscape:cx="140.57677"
     inkscape:cy="185.70171"
     inkscape:window-x="65"
     inkscape:window-y="24"
     inkscape:window-maximized="1"
     inkscape:current-layer="svg7657"
     fit-margin-top="0"
     fit-margin-left="0"
     fit-margin-right="0"
     fit-margin-bottom="0" />
  <defs
     id="defs8" />
  <path
     d="m 120,0 c -9.32028,10.57656 -15,24.42126 -15,39.61722 0.55232,33.36574 4.6446,66.66376 5,100.0195 0.73986,31.08682 -8.5845,60.28476 -19.92188,88.7673 -3.77774,7.8708 -7.86416,15.57454 -11.95312,23.2858 l -12.03126,-2.42246 c -10.82574,-2.16468 -17.8675,-12.69224 -15.70312,-23.5201 1.89386,-9.47434 10.23132,-16.05338 19.53126,-16.09688 l 4.375,0.46884 -9.76564,-81.5784 C 61.3393,92.21348 42.60116,60.34876 15,39.61722 10.25684,36.05452 5.23124,32.7974 0,29.92784 l 0,289.74398 66.875,0 c 5.00032,27.14982 19.93944,50.80216 40.93748,67.04434 4.99472,3.44316 9.17846,7.9843 12.18752,13.28384 3.00906,-5.29954 7.1928,-9.84068 12.1875,-13.28384 20.99806,-16.24218 35.9372,-39.89452 40.9375,-67.04434 l 66.875,0 0,-289.74398 c -5.23124,2.86956 -10.25684,6.12668 -15,9.68938 -27.60116,20.73154 -46.3393,52.59626 -49.53124,88.9236 l -9.76564,81.5784 4.375,-0.46884 c 9.29994,0.0436 17.63742,6.62254 19.53126,16.09688 2.16438,10.82786 -4.87736,21.35542 -15.70312,23.5201 l -12.03126,2.42246 c -4.08894,-7.71126 -8.17538,-15.415 -11.95312,-23.2858 C 138.5845,199.92148 129.26014,170.72354 130,139.63672 130.3554,106.28098 134.44768,72.98296 134.99998,39.61722 134.99998,24.42126 129.32028,10.57656 120,0 Z M 20,71.65472 c 12.9427,15.19272 21.62884,34.12514 24.21876,54.93246 l 8.04686,67.27888 c -10.2464,5.10198 -18.01414,14.46206 -20.9375,25.78626 l -11.32812,0 0,-147.9976 z m 200,0 0,147.9976 -11.32812,0 c -2.92334,-11.3242 -10.6911,-20.68428 -20.9375,-25.78626 l 8.04688,-67.27888 C 198.37116,105.77986 207.0573,86.84744 220,71.65472 Z M 120,206.91534 c 5.3724,17.57518 12.76378,34.26394 21.95312,49.77546 C 133.2126,259.34656 125.6055,264.51232 120,271.45918 114.39448,264.51232 106.7874,259.34656 98.04688,256.6908 107.2362,241.17928 114.6276,224.49052 120,206.91534 Z m -100,32.74088 11.32812,0 c 3.57166,13.8052 14.34756,24.71308 28.04688,28.52106 l 9.60936,2.18792 C 66.41132,279.69478 65,289.52444 65,299.66792 l -45,0 0,-60.0117 z m 188.67188,0 11.32812,0 0,60.0117 -45,0 c 0,-10.14348 -1.41132,-19.97314 -3.98436,-29.30272 l 9.60936,-2.18792 c 13.69932,-3.80798 24.47524,-14.71586 28.04688,-28.52106 z M 88.51562,274.9756 C 100.6481,276.6907 110,287.06222 110,299.66792 l -25,0 c 0,-8.57492 1.26998,-16.83852 3.51562,-24.69232 z m 62.96876,0 c 2.24564,7.8538 3.51564,16.1174 3.51564,24.69232 l -25.00002,0 c 0,-12.6057 9.3519,-22.97722 21.48438,-24.69232 z m -64.21876,44.69622 22.73438,0 0,42.11748 C 98.96682,350.25278 90.95198,335.76672 87.26562,319.67182 Z m 42.73438,0 22.73438,0 C 149.04804,335.76672 141.03316,350.25278 130,361.7893 l 0,-42.11748 z"
     id="path7306"
     style="fill:#000000;fill-opacity:1"
     inkscape:connector-curvature="0" />
</svg>
